<?xml version="1.0" encoding="UTF-8"?>
<svg width="85px" height="85px" viewBox="0 0 85 85" version="1.1" xmlns="http://www.w3.org/2000/svg" xmlns:xlink="http://www.w3.org/1999/xlink">
    <!-- Generator: Sketch 44.1 (41455) - http://www.bohemiancoding.com/sketch -->
    <title>FULL SCREEN</title>
    <desc>Created with Sketch.</desc>
    <defs>
        <path d="M23.7,57.25 L30.75,57.25 L30.75,62 L19,62 L19,58.4375 L19,50.125 L23.7,50.125 L23.7,57.25 Z M61.3,57.25 L54.25,57.25 L54.25,62 L66,62 L66,58.4375 L66,50.125 L61.3,50.125 L61.3,57.25 Z M66,27.5625 L66,24 L54.25,24 L54.25,28.75 L61.3,28.75 L61.3,35.875 L66,35.875 L66,27.5625 Z M23.7,28.75 L30.75,28.75 L30.75,24 L19,24 L19,27.5625 L19,35.875 L23.7,35.875 L23.7,28.75 Z M30.75,35.875 L54.25,35.875 L54.25,50.125 L30.75,50.125 L30.75,35.875 Z" id="path-1"></path>
        <filter x="-3.2%" y="-3.9%" width="106.4%" height="107.9%" filterUnits="objectBoundingBox" id="filter-2">
            <feMorphology radius="0.5" operator="dilate" in="SourceAlpha" result="shadowSpreadOuter1"></feMorphology>
            <feOffset dx="0" dy="0" in="shadowSpreadOuter1" result="shadowOffsetOuter1"></feOffset>
            <feColorMatrix values="0 0 0 0 0   0 0 0 0 0   0 0 0 0 0  0 0 0 0.2 0" type="matrix" in="shadowOffsetOuter1"></feColorMatrix>
        </filter>
    </defs>
    <g id="Page-1" stroke="none" stroke-width="1" fill="none" fill-rule="evenodd">
        <g id="FULL-SCREEN">
            <g id="icon-fullScreen">
                <use fill="black" fill-opacity="1" filter="url(#filter-2)" xlink:href="#path-1"></use>
                <use fill="#FFFFFF" fill-rule="evenodd" xlink:href="#path-1"></use>
            </g>
        </g>
    </g>
</svg>