<?xml version="1.0" encoding="UTF-8"?>
<svg width="85px" height="85px" viewBox="0 0 85 85" version="1.1" xmlns="http://www.w3.org/2000/svg" xmlns:xlink="http://www.w3.org/1999/xlink">
    <!-- Generator: Sketch 44.1 (41455) - http://www.bohemiancoding.com/sketch -->
    <title>GRID</title>
    <desc>Created with Sketch.</desc>
    <defs></defs>
    <g id="Page-1" stroke="none" stroke-width="1" fill="none" fill-rule="evenodd">
        <g id="GRID" stroke="#FAFAFA" stroke-width="1.5" fill="#000000" fill-rule="nonzero">
            <g id="noun_938983_cc" transform="translate(14.000000, 18.000000)">
                <path d="M48.4293229,3.39285714 L42.6467172,3.39285714 L42.6467172,1.78571429 C42.6467172,0.803571429 41.8335383,0 40.8396529,0 C39.8457676,0 39.0325886,0.803571429 39.0325886,1.78571429 L39.0325886,3.39285714 L29.8165608,3.39285714 L29.8165608,1.78571429 C29.8165608,0.803571429 29.0033818,0 28.0094965,0 C27.0156111,0 26.2024322,0.803571429 26.2024322,1.78571429 L26.2024322,3.39285714 L16.9864043,3.39285714 L16.9864043,1.78571429 C16.9864043,0.803571429 16.1732254,0 15.17934,0 C14.1854547,0 13.3722757,0.803571429 13.3722757,1.78571429 L13.3722757,3.39285714 L7.58967001,3.39285714 C3.88518822,3.39285714 0.81317893,6.42857143 0.81317893,10.0892857 L0.81317893,43.3035714 C0.81317893,46.9642857 3.88518822,50 7.58967001,50 L48.4293229,50 C52.1338047,50 55.205814,46.9642857 55.205814,43.3035714 L55.205814,10.0892857 C55.205814,6.42857143 52.1338047,3.39285714 48.4293229,3.39285714 Z M51.5916855,43.3035714 C51.5916855,45 50.146034,46.4285714 48.4293229,46.4285714 L7.58967001,46.4285714 C5.87295894,46.4285714 4.42730751,45 4.42730751,43.3035714 L4.42730751,21.1607143 L51.5916855,21.1607143 L51.5916855,43.3035714 Z M51.5916855,17.5892857 L4.42730751,17.5892857 L4.42730751,10.0892857 C4.42730751,8.39285714 5.87295894,6.96428571 7.58967001,6.96428571 L13.3722757,6.96428571 L13.3722757,8.57142857 C13.3722757,9.55357143 14.1854547,10.3571429 15.17934,10.3571429 C16.1732254,10.3571429 16.9864043,9.55357143 16.9864043,8.57142857 L16.9864043,6.96428571 L26.2024322,6.96428571 L26.2024322,8.57142857 C26.2024322,9.55357143 27.0156111,10.3571429 28.0094965,10.3571429 C29.0033818,10.3571429 29.8165608,9.55357143 29.8165608,8.57142857 L29.8165608,6.96428571 L39.0325886,6.96428571 L39.0325886,8.57142857 C39.0325886,9.55357143 39.8457676,10.3571429 40.8396529,10.3571429 C41.8335383,10.3571429 42.6467172,9.55357143 42.6467172,8.57142857 L42.6467172,6.96428571 L48.4293229,6.96428571 C50.146034,6.96428571 51.5916855,8.39285714 51.5916855,10.0892857 L51.5916855,17.5892857 Z" id="Shape"></path>
            </g>
        </g>
    </g>
</svg>