<?xml version="1.0" encoding="UTF-8"?>
<svg width="85px" height="85px" viewBox="0 0 85 85" version="1.1" xmlns="http://www.w3.org/2000/svg" xmlns:xlink="http://www.w3.org/1999/xlink">
    <!-- Generator: Sketch 44.1 (41455) - http://www.bohemiancoding.com/sketch -->
    <title>HOUSE</title>
    <desc>Created with Sketch.</desc>
    <defs>
        <path d="M39.2222222,50.6666667 L47.5555556,50.6666667 C49.0896799,50.6666667 50.3333333,49.4478863 50.3333333,47.9444444 C50.3333333,46.4410026 49.0896799,45.2222222 47.5555556,45.2222222 L36.4444444,45.2222222 C34.9103201,45.2222222 33.6666667,46.4410026 33.6666667,47.9444444 L33.6666667,61.5555556 L22.5555556,61.5555556 L22.5555556,43.6275814 L42,24.5720258 L61.4444444,43.6275814 L61.4444444,61.5555556 L47.5555556,61.5555556 C46.0214313,61.5555556 44.7777778,62.774336 44.7777778,64.2777778 C44.7777778,65.7812196 46.0214313,67 47.5555556,67 L64.2222222,67 C65.7563465,67 67,65.7812196 67,64.2777778 L67,42.5 C67,41.7780218 66.7073421,41.0856139 66.1864077,40.5750982 L43.9641855,18.7973204 C42.8793958,17.7342265 41.1206042,17.7342265 40.0358145,18.7973204 L17.8135923,40.5750982 C17.2926579,41.0856139 17,41.7780218 17,42.5 L17,64.2777778 C17,65.7812196 18.2436535,67 19.7777778,67 L36.4444444,67 C37.9785687,67 39.2222222,65.7812196 39.2222222,64.2777778 L39.2222222,50.6666667 Z" id="path-1"></path>
    </defs>
    <g id="Page-1" stroke="none" stroke-width="1" fill="none" fill-rule="evenodd">
        <g id="HOUSE">
            <mask id="mask-2" fill="white">
                <use xlink:href="#path-1"></use>
            </mask>
            <use id="Combined-Shape" stroke="#FAFAFA" stroke-width="3" fill="#262628" fill-rule="nonzero" xlink:href="#path-1"></use>
        </g>
    </g>
</svg>