<?xml version="1.0" encoding="utf-8"?>
<!-- Generator: Adobe Illustrator 19.0.0, SVG Export Plug-In . SVG Version: 6.00 Build 0)  -->
<svg version="1.1" id="Calque_1" xmlns="http://www.w3.org/2000/svg" xmlns:xlink="http://www.w3.org/1999/xlink" x="0px" y="0px"
	 viewBox="-263 354 85 85" style="enable-background:new -263 354 85 85;" xml:space="preserve">
<style type="text/css">
	.st0{fill:#FFFFFF;stroke:#FFFFFF;}
</style>
<title>PLAY</title>
<desc>Created with Sketch.</desc>
<g id="Page-1">
	<g id="PLAY">
		<g id="noun_947348_cc" transform="translate(14.000000, 15.000000)">
			<g id="Group">
				<path id="Shape" class="st0" d="M-235,354c-15.4,0-28,12.4-28,27.7c0,15.3,12.6,27.7,28,27.7s28-12.4,28-27.7
					C-207,366.4-219.6,354-235,354z M-235,358.1c13.2,0,23.9,10.5,23.9,23.6c0,13.1-10.7,23.6-23.9,23.6
					c-13.2,0-23.9-10.5-23.9-23.6C-258.9,368.6-248.2,358.1-235,358.1z M-242.3,366.8c-0.9,0-1.7,0.3-2.5,0.7
					c-1.5,0.9-2.5,2.5-2.5,4.4v19.5c0,1.9,1,3.5,2.5,4.4c1.5,0.9,3.4,1,5.1,0.1c5.7-3.2,11.4-6.5,17.1-9.8c1.5-0.9,2.6-2.5,2.6-4.4
					c0-1.9-1.1-3.5-2.6-4.4c-5.7-3.2-11.4-6.6-17.1-9.8C-240.6,367-241.5,366.8-242.3,366.8L-242.3,366.8z M-242.1,370.9
					c0.2,0,0.3,0.1,0.5,0.1l17,9.7c0.3,0.2,0.5,0.5,0.5,0.9c0,0.4-0.2,0.7-0.5,0.9l-17,9.7c-0.5,0.2-0.8,0.2-1,0
					c-0.3-0.2-0.5-0.4-0.5-0.9v-19.5c0-0.5,0.2-0.8,0.5-0.9C-242.5,370.9-242.3,370.9-242.1,370.9L-242.1,370.9z"/>
			</g>
		</g>
	</g>
</g>
</svg>
