<?xml version="1.0" encoding="UTF-8"?>
<svg width="85px" height="85px" viewBox="0 0 85 85" version="1.1" xmlns="http://www.w3.org/2000/svg" xmlns:xlink="http://www.w3.org/1999/xlink">
    <!-- Generator: Sketch 44.1 (41455) - http://www.bohemiancoding.com/sketch -->
    <title>PLAY</title>
    <desc>Created with Sketch.</desc>
    <defs>
        <linearGradient x1="-28.2897148%" y1="0%" x2="100%" y2="100%" id="linearGradient-1">
            <stop stop-color="#2F4CFD" offset="0%"></stop>
            <stop stop-color="#8E18F7" offset="100%"></stop>
        </linearGradient>
    </defs>
    <g id="Page-1" stroke="none" stroke-width="1" fill="none" fill-rule="evenodd">
        <g id="PLAY" fill-rule="nonzero" stroke="#FFFFFF" fill="url(#linearGradient-1)">
            <g id="noun_947348_cc" transform="translate(14.000000, 15.000000)">
                <g id="Group">
                    <path d="M27.9999999,0.0361441831 C12.5603902,0.0361441831 -3.0487854e-08,12.4452314 -3.0487854e-08,27.6988016 C-3.0487854e-08,42.9523245 12.5603902,55.3614522 27.9999999,55.3614522 C43.4396097,55.3614522 56,42.9523245 56,27.6988016 C56,12.4452314 43.4396097,0.0361441831 27.9999999,0.0361441831 Z M27.9999999,4.08433696 C41.2250146,4.08433696 51.902439,14.6330907 51.902439,27.6988016 C51.902439,40.7644787 41.2250146,51.3132594 27.9999999,51.3132594 C14.7749853,51.3132594 4.09756088,40.7644787 4.09756088,27.6988016 C4.09756088,14.6330907 14.7749853,4.08433696 27.9999999,4.08433696 Z M20.7012194,12.834337 C19.8192194,12.8526888 18.9609853,13.0990955 18.2256097,13.5301201 C16.7548585,14.392176 15.7492487,16.0342377 15.707317,17.8945779 L15.707317,37.4397654 C15.7496585,39.29991 16.7569755,40.9376064 18.2256097,41.8041895 C19.6942438,42.6708401 21.6582048,42.7609124 23.3261853,41.8676112 C29.035317,38.6241992 34.7408292,35.3343678 40.4421073,32.0634281 C41.9630536,31.1907727 43.0243902,29.5358714 43.0243902,27.6568353 C43.0243902,25.7777249 41.9631219,24.122817 40.4421073,23.2501683 C34.6973268,20.0641934 29.0918634,16.601855 23.3261853,13.4670358 C22.4391316,13.0442425 21.5163609,12.8255187 20.7012194,12.8345056 L20.7012194,12.834337 Z M20.8505755,16.8825297 C21.0135902,16.8992623 21.1826829,16.9642695 21.3841463,17.0301201 L38.3933268,26.7499726 C38.7308292,26.9436112 38.9268292,27.2462136 38.9268292,27.6566329 C38.9268292,28.0671196 38.7308975,28.3695196 38.3933268,28.5632931 L21.3841463,38.3041895 C20.9303414,38.5472835 20.6245268,38.4941847 20.3383804,38.3251052 C20.0616585,38.1617606 19.8298731,37.8919486 19.804878,37.3973943 L19.804878,17.9365779 C19.8294633,17.4416661 20.0420585,17.1700796 20.3170731,17.0088671 C20.5306926,16.8971437 20.6876292,16.865615 20.8505755,16.8823611 L20.8505755,16.8825297 Z" id="Shape"></path>
                </g>
            </g>
        </g>
    </g>
</svg>