<?xml version="1.0" encoding="UTF-8"?>
<svg width="85px" height="85px" viewBox="0 0 85 85" version="1.1" xmlns="http://www.w3.org/2000/svg" xmlns:xlink="http://www.w3.org/1999/xlink">
    <!-- Generator: Sketch 44.1 (41455) - http://www.bohemiancoding.com/sketch -->
    <title>PROFILE</title>
    <desc>Created with Sketch.</desc>
    <defs></defs>
    <g id="Page-1" stroke="none" stroke-width="1" fill="none" fill-rule="evenodd">
        <g id="PROFILE" stroke-width="2" stroke="#FAFAFA" fill="#000000" fill-rule="nonzero">
            <g id="noun_1057570_cc" transform="translate(22.000000, 18.000000)">
                <g id="Group">
                    <path d="M20.4749679,24.0972222 C27.1116816,24.0972222 32.4775353,18.8194444 32.4775353,12.2916667 C32.4775353,5.76388889 27.1116816,0.486111111 20.4749679,0.486111111 C13.8382542,0.486111111 8.47240051,5.76388889 8.47240051,12.2916667 C8.47240051,18.8194444 13.8382542,24.0972222 20.4749679,24.0972222 Z M20.4749679,4.65277778 C24.7817715,4.65277778 28.241335,8.05555556 28.241335,12.2916667 C28.241335,16.5277778 24.7817715,19.9305556 20.4749679,19.9305556 C16.1681643,19.9305556 12.7086008,16.5277778 12.7086008,12.2916667 C12.7086008,8.05555556 16.1681643,4.65277778 20.4749679,4.65277778 Z" id="Shape"></path>
                    <path d="M4.09499358,49.5138889 L36.7843389,49.5138889 C37.7021823,49.5138889 38.6200257,49.0972222 39.2554557,48.4722222 C39.8908858,47.7777778 40.2439024,46.875 40.1732991,45.9027778 C39.3966624,34.9305556 30.9242619,26.5972222 20.4043646,26.5972222 C9.88446727,26.5972222 1.41206675,34.8611111 0.635430039,45.9027778 C0.564826701,46.875 0.917843389,47.7777778 1.55327343,48.4722222 C2.2593068,49.1666667 3.17715019,49.5138889 4.09499358,49.5138889 Z M20.4749679,30.7638889 C28.4531451,30.7638889 35.0192555,36.9444444 35.9370988,45.3472222 L5.01283697,45.3472222 C5.93068036,37.0138889 12.4967908,30.7638889 20.4749679,30.7638889 Z" id="Shape"></path>
                </g>
            </g>
        </g>
    </g>
</svg>