<?xml version="1.0" encoding="UTF-8"?>
<svg width="85px" height="85px" viewBox="0 0 85 85" version="1.1" xmlns="http://www.w3.org/2000/svg" xmlns:xlink="http://www.w3.org/1999/xlink">
    <!-- Generator: Sketch 44.1 (41455) - http://www.bohemiancoding.com/sketch -->
    <title>RECHERCHE</title>
    <desc>Created with Sketch.</desc>
    <defs>
        <linearGradient x1="-39.2939163%" y1="0%" x2="100%" y2="100%" id="linearGradient-1">
            <stop stop-color="#314AFC" offset="0%"></stop>
            <stop stop-color="#8E18F7" offset="100%"></stop>
        </linearGradient>
    </defs>
    <g id="Page-1" stroke="none" stroke-width="1" fill="none" fill-rule="evenodd">
        <g id="RECHERCHE" stroke="#FFFFFF" stroke-width="2" fill="url(#linearGradient-1)" fill-rule="nonzero">
            <g id="noun_950829_cc" transform="translate(18.000000, 17.000000)">
                <path d="M49.2349202,45.9799933 L37.1596021,33.9041533 C43.4738589,25.7680046 42.9023975,13.9818094 35.4342585,6.51471414 C31.513355,2.59381065 26.3007922,0.434782609 20.7568341,0.434782609 C15.212354,0.434782609 10.0003131,2.59381065 6.07993153,6.51471414 C2.15902805,10.4350957 0,15.6476585 0,21.1921385 C0,26.7366186 2.15954993,31.9491813 6.07940965,35.8700848 C10.0003131,39.7904664 15.212354,41.9494945 20.7568341,41.9494945 C25.4214201,41.9494945 29.8475059,40.4162036 33.4709364,37.5964723 L45.5452107,49.6707466 C46.054568,50.1801039 46.7225777,50.4347826 47.3900654,50.4347826 C48.0575532,50.4347826 48.7260847,50.1801039 49.2349202,49.6707466 C50.2546787,48.6509881 50.2546787,46.998708 49.2349202,45.9799933 Z M9.76964105,32.1788097 C6.83457367,29.2437423 5.21830346,25.3416266 5.21830346,21.1916167 C5.21830346,17.0410849 6.83457367,13.139491 9.77016293,10.2044237 C12.7047084,7.26935628 16.6063023,5.65308607 20.7568341,5.65308607 C24.906844,5.65308607 28.8094816,7.26935628 31.7445489,10.2044237 C37.8025614,16.2624361 37.8025614,26.1197534 31.7445489,32.1782878 C28.8094816,35.1133552 24.906844,36.7296254 20.7568341,36.7296254 C16.6063023,36.7301472 12.7047084,35.113877 9.76964105,32.1788097 Z" id="Shape"></path>
            </g>
        </g>
    </g>
</svg>